<?xml version="1.0" encoding="utf-8"?>
<!-- Generator: Adobe Illustrator 16.2.1, SVG Export Plug-In . SVG Version: 6.00 Build 0)  -->
<!DOCTYPE svg PUBLIC "-//W3C//DTD SVG 1.1//EN" "http://www.w3.org/Graphics/SVG/1.1/DTD/svg11.dtd">
<svg version="1.1" id="Layer_1" xmlns="http://www.w3.org/2000/svg" xmlns:xlink="http://www.w3.org/1999/xlink" x="0px" y="0px"
	 width="64px" height="64px" viewBox="0 0 64 64" enable-background="new 0 0 64 64" xml:space="preserve">
<g>
	<g>
		<polygon fill="#FFFFFF" points="37,31.555 37,16 28,16 28,31.269 21.315,29.201 32.265,39.93 44.109,29.201 		"/>
	</g>
	<g>
		<path fill="#FFFFFF" d="M32,64C14.355,64,0,49.645,0,32C0,14.355,14.355,0,32,0c17.646,0,32,14.355,32,32
			C64,49.645,49.646,64,32,64z M32,3.156C16.095,3.156,3.156,16.095,3.156,32S16.095,60.845,32,60.845
			c15.905,0,28.845-12.939,28.845-28.845S47.905,3.156,32,3.156z"/>
	</g>
	<g>
		<rect x="21" y="42" fill="#FFFFFF" width="23" height="3"/>
	</g>
</g>
</svg>
