<?xml version="1.0" encoding="utf-8"?>
<!-- Generator: Adobe Illustrator 16.2.1, SVG Export Plug-In . SVG Version: 6.00 Build 0)  -->
<!DOCTYPE svg PUBLIC "-//W3C//DTD SVG 1.1//EN" "http://www.w3.org/Graphics/SVG/1.1/DTD/svg11.dtd">
<svg version="1.1" id="Layer_1" xmlns="http://www.w3.org/2000/svg" xmlns:xlink="http://www.w3.org/1999/xlink" x="0px" y="0px"
	 width="100px" height="100px" viewBox="0 0 100 100" enable-background="new 0 0 100 100" xml:space="preserve">
<path id="White_2_" fill="#FFFFFF" d="M94.461,0.553H6.039c-3.03,0-5.486,2.456-5.486,5.486v88.422c0,3.03,2.456,5.486,5.486,5.486
	h47.604v-38.49H40.689V46.456h12.953V35.393c0-12.838,7.841-19.828,19.293-19.828c5.486,0,10.201,0.408,11.575,0.591v13.417
	l-7.943,0.004c-6.229,0-7.434,2.959-7.434,7.302v9.578h14.854l-1.935,15.001H69.134v38.49h25.327c3.03,0,5.486-2.456,5.486-5.486
	V6.039C99.947,3.008,97.491,0.553,94.461,0.553z"/>
</svg>
