<?xml version="1.0" encoding="utf-8"?>
<!-- Generator: Adobe Illustrator 16.2.1, SVG Export Plug-In . SVG Version: 6.00 Build 0)  -->
<!DOCTYPE svg PUBLIC "-//W3C//DTD SVG 1.1//EN" "http://www.w3.org/Graphics/SVG/1.1/DTD/svg11.dtd">
<svg version="1.1" id="Layer_1" xmlns="http://www.w3.org/2000/svg" xmlns:xlink="http://www.w3.org/1999/xlink" x="0px" y="0px"
	 width="64px" height="64px" viewBox="0 0 64 64" enable-background="new 0 0 64 64" xml:space="preserve">
<g>
	<g>
		<path fill="#FFFFFF" d="M31.644,64c-17.65,0-32.01-14.359-32.01-32.01c0-17.65,14.36-32.01,32.01-32.01s32.01,14.36,32.01,32.01
			C63.653,49.641,49.294,64,31.644,64z M31.644,3.136C15.733,3.136,2.79,16.08,2.79,31.99c0,15.91,12.944,28.854,28.854,28.854
			S60.497,47.899,60.497,31.99C60.497,16.08,47.554,3.136,31.644,3.136z"/>
	</g>
	<g>
		<g>
			<g>
				<path fill="#FFFFFF" d="M41.671,48.119l-3.083-0.555c1.763-4.751,2.658-9.668,2.658-14.614c0-5.581-1.15-11.127-3.42-16.484
					l3.053-0.628c2.356,5.561,3.55,11.318,3.55,17.112C44.429,38.084,43.5,43.188,41.671,48.119z"/>
			</g>
		</g>
		<g>
			<g>
				<path fill="#FFFFFF" d="M34.684,45.275l-3.102-0.497c1.283-3.9,1.933-7.88,1.933-11.828c0-4.635-0.876-9.255-2.601-13.732
					l3.071-0.576c1.8,4.666,2.714,9.479,2.714,14.308C36.698,37.064,36.021,41.211,34.684,45.275z"/>
			</g>
		</g>
		<g>
			<g>
				<path fill="#FFFFFF" d="M28.305,42.67l-3.121-0.429c0.863-3.066,1.302-6.192,1.302-9.291c0-3.75-0.643-7.524-1.912-11.217
					l3.096-0.515c1.327,3.861,1.999,7.808,1.999,11.732C29.67,36.193,29.209,39.462,28.305,42.67z"/>
			</g>
		</g>
		<g>
			<g>
				<path fill="#FFFFFF" d="M22.374,40.239l-3.145-0.352c0.586-2.538,0.869-4.807,0.869-6.937c0-2.978-0.444-5.978-1.324-8.917
					l3.114-0.453c0.924,3.087,1.393,6.24,1.393,9.37C23.282,35.201,22.983,37.584,22.374,40.239z"/>
			</g>
		</g>
	</g>
</g>
</svg>
