<?xml version="1.0" encoding="utf-8"?>
<!-- Generator: Adobe Illustrator 16.2.1, SVG Export Plug-In . SVG Version: 6.00 Build 0)  -->
<!DOCTYPE svg PUBLIC "-//W3C//DTD SVG 1.1//EN" "http://www.w3.org/Graphics/SVG/1.1/DTD/svg11.dtd">
<svg version="1.1" id="Layer_1" xmlns="http://www.w3.org/2000/svg" xmlns:xlink="http://www.w3.org/1999/xlink" x="0px" y="0px"
	 width="64px" height="64px" viewBox="0 0 64 64" enable-background="new 0 0 64 64" xml:space="preserve">
<g>
	<circle fill="#2E2E2E" cx="31.644" cy="32" r="32"/>
	<g>
		<g>
			<path fill="#FFFFFF" d="M42.188,48.96l-3.242-0.583c1.854-4.996,2.795-10.166,2.795-15.366c0-5.869-1.209-11.7-3.596-17.333
				l3.209-0.661c2.479,5.847,3.733,11.901,3.733,17.994C45.088,38.408,44.11,43.775,42.188,48.96z"/>
		</g>
		<g>
			<path fill="#FFFFFF" d="M34.841,45.97l-3.262-0.521c1.35-4.103,2.033-8.287,2.033-12.438c0-4.874-0.922-9.732-2.735-14.44
				l3.229-0.606c1.893,4.906,2.854,9.967,2.854,15.046C36.959,37.337,36.246,41.696,34.841,45.97z"/>
		</g>
		<g>
			<path fill="#FFFFFF" d="M28.134,43.23l-3.282-0.451c0.908-3.224,1.369-6.512,1.369-9.769c0-3.943-0.676-7.912-2.01-11.795
				l3.255-0.542c1.396,4.06,2.102,8.21,2.102,12.337C29.568,36.42,29.084,39.857,28.134,43.23z"/>
		</g>
		<g>
			<path fill="#FFFFFF" d="M21.897,40.675l-3.308-0.37c0.617-2.669,0.914-5.054,0.914-7.294c0-3.132-0.467-6.286-1.392-9.377
				l3.275-0.476c0.972,3.246,1.465,6.562,1.465,9.853C22.852,35.376,22.538,37.882,21.897,40.675z"/>
		</g>
	</g>
</g>
</svg>
