<?xml version="1.0" encoding="utf-8"?>
<!-- Generator: Adobe Illustrator 16.2.1, SVG Export Plug-In . SVG Version: 6.00 Build 0)  -->
<!DOCTYPE svg PUBLIC "-//W3C//DTD SVG 1.1//EN" "http://www.w3.org/Graphics/SVG/1.1/DTD/svg11.dtd">
<svg version="1.1" id="Layer_1" xmlns="http://www.w3.org/2000/svg" xmlns:xlink="http://www.w3.org/1999/xlink" x="0px" y="0px"
	 width="100px" height="100px" viewBox="0 0 100 100" enable-background="new 0 0 100 100" xml:space="preserve">
<path fill="#FFFFFF" d="M99.708,19.057c-3.645,1.617-7.562,2.709-11.675,3.201c4.195-2.516,7.42-6.5,8.938-11.247
	c-3.928,2.33-8.278,4.021-12.909,4.933c-3.708-3.951-8.991-6.419-14.838-6.419c-11.227,0-20.328,9.102-20.328,20.328
	c0,1.593,0.18,3.145,0.526,4.633c-16.895-0.848-31.874-8.94-41.9-21.24c-1.75,3.002-2.752,6.494-2.752,10.22
	c0,7.052,3.588,13.274,9.043,16.92c-3.333-0.106-6.467-1.02-9.208-2.543c-0.002,0.085-0.002,0.169-0.002,0.256
	c0,9.85,7.008,18.065,16.307,19.933c-1.706,0.465-3.502,0.713-5.355,0.713c-1.31,0-2.584-0.127-3.825-0.364
	c2.587,8.075,10.094,13.953,18.989,14.117c-6.956,5.451-15.722,8.701-25.246,8.701c-1.641,0-3.259-0.096-4.849-0.284
	c8.996,5.768,19.682,9.134,31.161,9.134c37.391,0,57.838-30.976,57.838-57.838c0-0.882-0.021-1.758-0.059-2.63
	C93.537,26.713,96.982,23.133,99.708,19.057z"/>
</svg>
